<?xml version="1.0" ?><svg xmlns="http://www.w3.org/2000/svg" width="26.639652mm" height="46.629158mm" viewBox="0 0 26.639652 46.629158">
    <path d="m 28.8705,119.83014 c -4.158,-1.07856 -6.2417,-2.55158 -6.8094,-4.81405 -0.7101,-2.82943 1.3285,-5.03537 3.5659,-3.85879 5.0392,2.64957 13.9668,1.71627 15.0096,-1.56907 1.4416,-4.54197 -1.5615,-8.62705 -9.6877,-13.177568 -6.6117,-3.702521 -8.9294,-6.265067 -8.6726,-10.2357 0.5476,-8.465827 7.1461,-12.456313 12.8856,-12.585722 3.4857,-0.07859 9.6067,3.495098 9.9145,5.662112 0.3084,2.171299 0.041,2.193403 -5.4927,0.942245 -4.0857,-0.923826 -8.1775,-0.830948 -10.3793,4.105945 -1.1217,2.51514 -0.1001,3.53416 5.5381,6.05564 11.6719,5.219456 16.7712,15.119138 12.0839,23.459218 -0.9663,1.71914 -2.8015,3.74287 -4.0785,4.49716 -2.7375,1.61697 -10.3052,2.44511 -13.8774,1.51858 z" transform="translate(-21.917456,-73.587965)"/>
</svg>